<svg xmlns="http://www.w3.org/2000/svg" xmlns:xlink="http://www.w3.org/1999/xlink" contentStyleType="text/css" data-diagram-type="DESCRIPTION" height="692px" preserveAspectRatio="none" style="width:835px;height:692px;background:#1B1B1B;" version="1.1" viewBox="0 0 835 692" width="835px" zoomAndPan="magnify"><title>Diagrama de Caso de Uso - Sistema de Estacionamento</title><defs/><g><rect fill="#1B1B1B" height="692" style="stroke:none;stroke-width:1;" width="835" x="0" y="0"/><g class="title" data-source-line="1"><text fill="#FFFFFF" font-family="sans-serif" font-size="14" font-weight="bold" lengthAdjust="spacing" textLength="436.584" x="192.208" y="22.9951">Diagrama de Caso de Uso - Sistema de Estacionamento</text></g><!--cluster Sistema de Estacionamento--><g class="cluster" data-entity="Sistema de Estacionamento" data-source-line="6" data-uid="ent0004" id="cluster_Sistema de Estacionamento"><rect fill="none" height="367.51" rx="2.5" ry="2.5" style="stroke:#E7E7E7;stroke-width:1;" width="822" x="7" y="319.3869"/><text fill="#FFFFFF" font-family="sans-serif" font-size="14" font-weight="bold" lengthAdjust="spacing" textLength="219.2285" x="308.3857" y="334.382">Sistema de Estacionamento</text></g><!--entity UC1--><g class="entity" data-entity="UC1" data-source-line="7" data-uid="ent0005" id="entity_UC1"><ellipse cx="132.0025" cy="386.7894" fill="#313139" rx="108.7625" ry="24.1525" style="stroke:#E7E7E7;stroke-width:0.5;"/><text fill="#FFFFFF" font-family="sans-serif" font-size="14" lengthAdjust="spacing" textLength="195.2002" x="34.4024" y="391.4378">Registar Entrada de Ve&#237;culo</text></g><!--entity UC2--><g class="entity" data-entity="UC2" data-source-line="8" data-uid="ent0006" id="entity_UC2"><ellipse cx="145.9982" cy="524.6045" fill="#313139" rx="123.0382" ry="27.0076" style="stroke:#E7E7E7;stroke-width:0.5;"/><text fill="#FFFFFF" font-family="sans-serif" font-size="14" lengthAdjust="spacing" textLength="225.8252" x="33.0856" y="529.253">Verificar Exist&#234;ncia de Matr&#237;cula</text></g><!--entity UC3--><g class="entity" data-entity="UC3" data-source-line="9" data-uid="ent0007" id="entity_UC3"><ellipse cx="146.0018" cy="650.4712" fill="#313139" rx="90.1718" ry="20.4344" style="stroke:#E7E7E7;stroke-width:0.5;"/><text fill="#FFFFFF" font-family="sans-serif" font-size="14" lengthAdjust="spacing" textLength="154.1299" x="68.9369" y="655.1197">Registar Novo Ve&#237;culo</text></g><!--entity UC4--><g class="entity" data-entity="UC4" data-source-line="10" data-uid="ent0008" id="entity_UC4"><ellipse cx="377.0028" cy="386.7854" fill="#313139" rx="101.3428" ry="22.6686" style="stroke:#E7E7E7;stroke-width:0.5;"/><text fill="#FFFFFF" font-family="sans-serif" font-size="14" lengthAdjust="spacing" textLength="179.0127" x="287.4965" y="391.4339">Registar Sa&#237;da de Ve&#237;culo</text></g><!--entity UC5--><g class="entity" data-entity="UC5" data-source-line="11" data-uid="ent0009" id="entity_UC5"><ellipse cx="434.0008" cy="524.611" fill="#313139" rx="130.1208" ry="28.4242" style="stroke:#E7E7E7;stroke-width:0.5;"/><text fill="#FFFFFF" font-family="sans-serif" font-size="14" lengthAdjust="spacing" textLength="240.8301" x="313.5858" y="529.2595">Calcular Custo do Estacionamento</text></g><!--entity UC6--><g class="entity" data-entity="UC6" data-source-line="12" data-uid="ent0010" id="entity_UC6"><ellipse cx="663" cy="386.7909" fill="#313139" rx="149.97" ry="32.394" style="stroke:#E7E7E7;stroke-width:0.5;"/><text fill="#FFFFFF" font-family="sans-serif" font-size="14" lengthAdjust="spacing" textLength="282.4199" x="521.79" y="391.4393">Consultar Listagem de Estacionamentos</text></g><!--entity Func--><g class="entity" data-entity="Func" data-source-line="3" data-uid="ent0002" id="entity_Func"><ellipse cx="376.9986" cy="204.5969" fill="#313139" rx="8" ry="8" style="stroke:#E7E7E7;stroke-width:0.5;"/><path d="M376.9986,212.5969 L376.9986,239.5969 M363.9986,220.5969 L389.9986,220.5969 M376.9986,239.5969 L363.9986,254.5969 M376.9986,239.5969 L389.9986,254.5969" fill="none" style="stroke:#E7E7E7;stroke-width:0.5;"/><text fill="#FFFFFF" font-family="sans-serif" font-size="14" lengthAdjust="spacing" textLength="157.1172" x="298.44" y="269.092">Funcion&#225;rio do Parque</text></g><!--entity Gestor--><g class="entity" data-entity="Gestor" data-source-line="4" data-uid="ent0003" id="entity_Gestor"><ellipse cx="519.0047" cy="51.2969" fill="#313139" rx="8" ry="8" style="stroke:#E7E7E7;stroke-width:0.5;"/><path d="M519.0047,59.2969 L519.0047,86.2969 M506.0047,67.2969 L532.0047,67.2969 M519.0047,86.2969 L506.0047,101.2969 M519.0047,86.2969 L532.0047,101.2969" fill="none" style="stroke:#E7E7E7;stroke-width:0.5;"/><text fill="#FFFFFF" font-family="sans-serif" font-size="14" lengthAdjust="spacing" textLength="122.0693" x="457.97" y="115.792">Gestor do Parque</text></g><!--link Func to UC1--><g class="link" data-entity-1="Func" data-entity-2="UC1" data-source-line="16" data-uid="lnk11" id="link_Func_UC1"><path d="M315.81,272.8469 C269.32,301.4069 212.0723,336.586 173.2523,360.436" fill="none" id="Func-to-UC1" style="stroke:#E7E7E7;stroke-width:1;"/><polygon fill="#E7E7E7" points="168.14,363.5769,177.9023,362.2738,172.4002,360.9595,173.7145,355.4575,168.14,363.5769" style="stroke:#E7E7E7;stroke-width:1;"/></g><!--link Func to UC4--><g class="link" data-entity-1="Func" data-entity-2="UC4" data-source-line="17" data-uid="lnk12" id="link_Func_UC4"><path d="M377,272.8469 C377,301.5869 377,334.1969 377,358.0169" fill="none" id="Func-to-UC4" style="stroke:#E7E7E7;stroke-width:1;"/><polygon fill="#E7E7E7" points="377,364.0169,381,355.0169,377,359.0169,373,355.0169,377,364.0169" style="stroke:#E7E7E7;stroke-width:1;"/></g><!--link UC1 to UC2--><g class="link" data-entity-1="UC1" data-entity-2="UC2" data-source-line="20" data-uid="lnk13" id="link_UC1_UC2"><path d="M134.41,411.1369 C136.88,435.0969 140.0938,466.3586 142.6738,491.3486" fill="none" id="UC1-to-UC2" style="stroke:#E7E7E7;stroke-width:1;"/><polygon fill="#E7E7E7" points="143.29,497.3169,146.3446,487.9537,142.7765,492.3433,138.3869,488.7752,143.29,497.3169" style="stroke:#E7E7E7;stroke-width:1;"/><text fill="#FFFFFF" font-family="sans-serif" font-size="13" lengthAdjust="spacing" textLength="63.0068" x="140" y="462.2438">&#171;include&#187;</text></g><!--link UC2 to UC3--><g class="link" data-entity-1="UC2" data-entity-2="UC3" data-source-line="21" data-uid="lnk14" id="link_UC2_UC3"><path d="M146,551.8669 C146,575.1669 146,602.6669 146,623.7369" fill="none" id="UC2-to-UC3" style="stroke:#E7E7E7;stroke-width:1;"/><polygon fill="#E7E7E7" points="146,629.7369,150,620.7369,146,624.7369,142,620.7369,146,629.7369" style="stroke:#E7E7E7;stroke-width:1;"/><text fill="#FFFFFF" font-family="sans-serif" font-size="13" lengthAdjust="spacing" textLength="61.1851" x="147" y="596.0938">&#171;extend&#187;</text></g><!--link UC4 to UC5--><g class="link" data-entity-1="UC4" data-entity-2="UC5" data-source-line="22" data-uid="lnk15" id="link_UC4_UC5"><path d="M386.16,409.6069 C396.04,433.1569 409.4674,465.1647 420.1774,490.6747" fill="none" id="UC4-to-UC5" style="stroke:#E7E7E7;stroke-width:1;"/><polygon fill="#E7E7E7" points="422.5,496.2069,422.7042,486.3601,420.5645,491.5967,415.3279,489.457,422.5,496.2069" style="stroke:#E7E7E7;stroke-width:1;"/><text fill="#FFFFFF" font-family="sans-serif" font-size="13" lengthAdjust="spacing" textLength="63.0068" x="409" y="462.2438">&#171;include&#187;</text></g><!--link Gestor to UC6--><g class="link" data-entity-1="Gestor" data-entity-2="UC6" data-source-line="25" data-uid="lnk16" id="link_Gestor_UC6"><path d="M550.3,119.3969 C557.31,128.7569 564.33,139.0169 570,149.0969 C609.04,218.5669 637.4838,302.0058 651.9138,348.5658" fill="none" id="Gestor-to-UC6" style="stroke:#E7E7E7;stroke-width:1;"/><polygon fill="#E7E7E7" points="653.69,354.2969,654.8464,344.5161,652.2098,349.521,647.205,346.8844,653.69,354.2969" style="stroke:#E7E7E7;stroke-width:1;"/></g><!--link Gestor to Func--><g class="link" data-entity-1="Gestor" data-entity-2="Func" data-source-line="26" data-uid="lnk17" id="link_Gestor_Func"><path d="M483.9,119.3469 C462.05,142.6269 446.3686,159.3324 424.5086,182.6224" fill="none" id="Gestor-to-Func" style="stroke:#E7E7E7;stroke-width:1;"/><polygon fill="none" points="412.19,195.7469,428.8834,186.7286,420.1338,178.5162,412.19,195.7469" style="stroke:#E7E7E7;stroke-width:1;"/><text fill="#FFFFFF" font-family="sans-serif" font-size="13" lengthAdjust="spacing" textLength="108.7671" x="453" y="162.1638">&#171;herda fun&#231;&#245;es&#187;</text></g><!--SRC=[TPA_JiCm4CPtFyKf2rC6shG3ghA4mW88jMhtatCDbX9R-0-g13mC4n9IHvuWBuRj1D6aDClfxhwVl_F5LjYQu5fWfR51A0aAD2h4ZGyfh8Mnr3MMnY8NIc93qYh6a5kb8RbnCbJR3oqyf-0HzREZ1D10QFtARic4E1HqHSOqSOkoyfCaPmqJU6NWFsU8e_7A5LLUYngMqcei8xAbzi1ThUBfc-9oI6n9YvtW0TbxjFtoaqVi7gsE8FRWv8pLWtfHOvFf6UqQsyE_KsL3eC0wE6iedDz6sD3uuf6QZIWbZQk3prsmgwWvNPdfqJbxP-m2LbHZ-zb-amacn_-DXGJID8yxEqgo4IUa9ItHCA_h9HEuWiL2I5wxalASXKhNcSOExIt9CZQolZ4R8IUpzU-YVpCTDFzBt_8uVJpbYRHVyix9Zixp7m00]--></g></svg>